<!-- Generated by IcoMoon.io -->
<svg version="1.1" xmlns="http://www.w3.org/2000/svg" width="34" height="32" viewBox="0 0 34 32">
<title>notifications</title>
<path fill="#444" d="M31.603 26.035h-29.826c-2.032 0-2.032-3.048 0-3.048 0.967 0 1.549-0.64 1.906-2.016 0.227-0.874 0.292-1.825 0.264-2.596-0.003-0.079-0.003-0.079-0.007-0.179v-5.657c0-6.769 5.626-12.289 12.495-12.289h0.508c6.869 0 12.495 5.52 12.495 12.289l-0.003 5.756c-0 0.001-0 0.001-0.003 0.080-0.027 0.77 0.038 1.722 0.264 2.596 0.357 1.376 0.939 2.016 1.906 2.016 2.032 0 2.032 3.048 0 3.048zM26.747 21.736c-0.313-1.208-0.397-2.43-0.36-3.469 0.005-0.127 0.005-0.127 0.005-0.071v-5.657c0-5.073-4.249-9.241-9.448-9.241h-0.508c-5.199 0-9.448 4.169-9.448 9.241l-0.003 5.558c0.003 0.043 0.003 0.043 0.008 0.17 0.037 1.039-0.047 2.261-0.36 3.469-0.115 0.444-0.257 0.862-0.427 1.251h20.967c-0.17-0.389-0.312-0.808-0.427-1.251zM18.976 28.932c0.842 0 1.524 0.682 1.524 1.524s-0.682 1.524-1.524 1.524h-4.571c-0.842 0-1.524-0.682-1.524-1.524s0.682-1.524 1.524-1.524h4.571z"/>
</svg>