<!-- Generated by IcoMoon.io -->
<svg version="1.1" xmlns="http://www.w3.org/2000/svg" width="32" height="32" viewBox="0 0 32 32">
<title>search2</title>
<path fill="#444" d="M9.951 23.867l-6.415 6.415c-0.658 0.658-1.724 0.658-2.382 0s-0.658-1.724 0-2.382l6.486-6.486c-1.627-2.227-2.587-4.972-2.587-7.941 0-7.441 6.032-13.474 13.474-13.474s13.474 6.032 13.474 13.474c0 7.441-6.032 13.474-13.474 13.474-3.258 0-6.245-1.156-8.575-3.081zM8.421 13.474c0 5.581 4.524 10.105 10.105 10.105s10.105-4.524 10.105-10.105c0-5.581-4.524-10.105-10.105-10.105s-10.105 4.524-10.105 10.105z"/>
</svg>